<svg height="512pt" viewBox="0 0 512 512" width="512pt" xmlns="http://www.w3.org/2000/svg" xmlns:xlink="http://www.w3.org/1999/xlink"><linearGradient id="a"><stop offset="0" stop-color="#3b395f"/><stop offset=".3952" stop-color="#39375d"/><stop offset=".6279" stop-color="#323154"/><stop offset=".8179" stop-color="#262846"/><stop offset=".9849" stop-color="#151a32"/><stop offset="1" stop-color="#131830"/></linearGradient><radialGradient id="b" cx="215.8434307844" cy="185.72557" gradientUnits="userSpaceOnUse" r="336.6901399656" xlink:href="#a"/><linearGradient id="c"><stop offset="0" stop-color="#cfced3"/><stop offset=".8111" stop-color="#a5abbd"/><stop offset="1" stop-color="#9aa2b7"/></linearGradient><radialGradient id="d" cx="62.9171972308" cy="20.7663273544" gradientUnits="userSpaceOnUse" r="178.7345583686" xlink:href="#c"/><radialGradient id="e" cx="254.2105186428" cy="252.263010355" gradientUnits="userSpaceOnUse" r="228.7357971084"><stop offset="0" stop-color="#fff"/><stop offset="1" stop-color="#fff" stop-opacity="0"/></radialGradient><radialGradient id="f" cx="186.2208047226" cy="112.2442019554" gradientUnits="userSpaceOnUse" r="281.5994182546" xlink:href="#a"/><linearGradient id="g" gradientUnits="userSpaceOnUse" x1="77.7755440074" x2="282.6121747682" y1="75.8275337586" y2="280.6641645194"><stop offset=".0061" stop-color="#fff"/><stop offset=".0109" stop-color="#f8f8f9"/><stop offset=".0436" stop-color="#cccbd5"/><stop offset=".0788" stop-color="#a5a4b5"/><stop offset=".1158" stop-color="#84839b"/><stop offset=".1553" stop-color="#696885"/><stop offset=".1982" stop-color="#555374"/><stop offset=".2461" stop-color="#464468"/><stop offset=".3031" stop-color="#3e3c61"/><stop offset=".3926" stop-color="#3b395f"/><stop offset=".6191" stop-color="#2f2f51"/><stop offset="1" stop-color="#131830"/></linearGradient><radialGradient id="h" cx="150.6182" cy="-6157.02" gradientTransform="matrix(-1.003922 0 0 -1.003922 322.593129 -5963.294118)" gradientUnits="userSpaceOnUse" r="67.5285" xlink:href="#a"/><radialGradient id="i" cx="107.0341" cy="-6093.2456" gradientTransform="matrix(-1.003922 0 0 -1.003922 322.593129 -5963.294118)" gradientUnits="userSpaceOnUse" r="45.5923" xlink:href="#a"/><radialGradient id="j" cx="100.595" cy="-6135.4233" gradientTransform="matrix(-1.003922 0 0 -1.003922 322.593129 -5963.294118)" gradientUnits="userSpaceOnUse" r="28.6806" xlink:href="#a"/><radialGradient id="k" cx="348.929153852" cy="307.8025855922" gradientUnits="userSpaceOnUse" r="157.247816587" xlink:href="#c"/><linearGradient id="l" gradientUnits="userSpaceOnUse" x1="498.012574774" x2="287.5029815756" y1="391.6236474914" y2="394.9085806676"><stop offset=".0018" stop-color="#9aa2b7" stop-opacity="0"/><stop offset=".3682" stop-color="#848a9c" stop-opacity=".368627"/><stop offset="1" stop-color="#606572"/></linearGradient><radialGradient id="m" cx="264.3937010576" cy="347.071396191" gradientUnits="userSpaceOnUse" r="178.7339560154" xlink:href="#c"/><path d="m512 256c0 141.386719-114.613281 256-256 256s-256-114.613281-256-256 114.613281-256 256-256 256 114.613281 256 256zm0 0" fill="url(#b)"/><path d="m27.335938 93.4375c-.003907-.179688-.015626-.359375-.015626-.539062 0-36.3125 29.4375-65.746094 65.75-65.746094 30.824219 0 56.6875 21.21875 63.800782 49.84375 3.78125-1.125 7.78125-1.738282 11.929687-1.738282 23.027344 0 41.695313 18.667969 41.695313 41.691407 0 23.03125-18.667969 41.699219-41.695313 41.699219-13.320312 0-125.460937 0-134.859375 0-18.191406 0-32.9375-14.746094-32.9375-32.9375 0-15.929688 11.304688-29.214844 26.332032-32.273438zm0 0" fill="url(#d)"/><path d="m485.523438 254.316406c0 126.613282-102.644532 229.257813-229.261719 229.257813-126.613281 0-229.257813-102.644531-229.257813-229.257813 0-126.617187 102.644532-229.257812 229.257813-229.257812 126.617187 0 229.261719 102.640625 229.261719 229.257812zm0 0" fill="url(#e)"/><path d="m426.367188 254.316406c0 93.945313-76.15625 170.101563-170.105469 170.101563-93.945313 0-170.101563-76.15625-170.101563-170.101563 0-93.945312 76.15625-170.105468 170.101563-170.105468 93.949219 0 170.105469 76.160156 170.105469 170.105468zm0 0" fill="url(#f)"/><path d="m410.207031 254.316406c0 85.019532-68.921875 153.941406-153.945312 153.941406-85.019531 0-153.941407-68.921874-153.941407-153.941406 0-85.023437 68.921876-153.945312 153.941407-153.945312 85.023437 0 153.945312 68.921875 153.945312 153.945312zm0 0" fill="url(#g)"/><path d="m195.949219 203.890625c0 22.207031-18.003907 40.207031-40.207031 40.207031-22.207032 0-40.210938-18-40.210938-40.207031s18.003906-40.210937 40.210938-40.210937c22.203124 0 40.207031 18.003906 40.207031 40.210937zm0 0" fill="url(#h)"/><path d="m228.90625 140.609375c0 13.832031-11.214844 25.046875-25.046875 25.046875s-25.046875-11.214844-25.046875-25.046875 11.214844-25.046875 25.046875-25.046875 25.046875 11.214844 25.046875 25.046875zm0 0" fill="url(#i)"/><path d="m234.179688 189.386719c0 9.464843-7.671876 17.140625-17.136719 17.140625-9.464844 0-17.136719-7.675782-17.136719-17.140625 0-9.464844 7.671875-17.136719 17.136719-17.136719 9.464843 0 17.136719 7.671875 17.136719 17.136719zm0 0" fill="url(#j)"/><path d="m317.625 371.738281c0-.160156-.011719-.316406-.011719-.476562 0-31.945313 25.898438-57.84375 57.84375-57.84375 27.121094 0 49.871094 18.671875 56.128907 43.855469 3.328124-.992188 6.847656-1.53125 10.496093-1.53125 20.261719 0 36.683594 16.421874 36.683594 36.683593 0 20.257813-16.421875 36.683594-36.683594 36.683594-11.71875 0-110.375 0-118.648437 0-16 0-28.976563-12.976563-28.976563-28.976563.003907-14.015624 9.949219-25.703124 23.167969-28.394531zm0 0" fill="url(#k)"/><path d="m294.460938 400.128906c0 16.003906 12.972656 28.976563 28.976562 28.976563h91.613281l-14.394531-14.390625c-7.605469-8.09375-18.398438-13.15625-30.378906-13.15625-.140625 0-.273438.015625-.414063.015625-.113281-.109375-.226562-.222657-.34375-.332031l-27.585937-27.589844c-6.378906-6.640625-14.148438-11.921875-22.828125-15.425782-.964844 4.191407-1.492188 8.550782-1.492188 13.035157 0 .160156.011719.316406.011719.476562-13.21875 2.691407-23.164062 14.378907-23.164062 28.390625zm0 0" fill="url(#l)"/><path d="m228.8125 419.742188c-.003906-.179688-.015625-.355469-.015625-.539063 0-36.308594 29.4375-65.746094 65.75-65.746094 30.824219 0 56.6875 21.21875 63.800781 49.84375 3.78125-1.125 7.78125-1.738281 11.929688-1.738281 23.027344 0 41.695312 18.667969 41.695312 41.695312 0 23.027344-18.667968 41.695313-41.695312 41.695313-13.320313 0-125.460938 0-134.859375 0-18.191407 0-32.9375-14.746094-32.9375-32.9375 0-15.929687 11.304687-29.214844 26.332031-32.273437zm0 0" fill="url(#m)"/></svg>