<?xml version="1.0" encoding="iso-8859-1"?>
<!-- Generator: Adobe Illustrator 19.0.0, SVG Export Plug-In . SVG Version: 6.00 Build 0)  -->
<svg version="1.1" id="Capa_1" xmlns="http://www.w3.org/2000/svg" xmlns:xlink="http://www.w3.org/1999/xlink" x="0px" y="0px"
	 viewBox="0 0 512.001 512.001" style="enable-background:new 0 0 512.001 512.001;" xml:space="preserve">
<radialGradient id="SVGID_1_" cx="297.2491" cy="271.4322" r="201.15" gradientTransform="matrix(1.0039 0 0 -1.0039 0.1922 516.5593)" gradientUnits="userSpaceOnUse">
	<stop  offset="0" style="stop-color:#FFB500"/>
	<stop  offset="0.641" style="stop-color:#FFC72D;stop-opacity:0.359"/>
	<stop  offset="1" style="stop-color:#FFCF42;stop-opacity:0"/>
</radialGradient>
<circle style="fill:url(#SVGID_1_);" cx="298.135" cy="244.063" r="213.865"/>
<radialGradient id="SVGID_2_" cx="315.4891" cy="270.3022" r="161.79" gradientTransform="matrix(1.0039 0 0 -1.0039 0.1922 516.5593)" gradientUnits="userSpaceOnUse">
	<stop  offset="0" style="stop-color:#FFCF42"/>
	<stop  offset="1" style="stop-color:#FFCF42;stop-opacity:0"/>
</radialGradient>
<path style="fill:url(#SVGID_2_);" d="M298.131,74.338c-1.03,3.294-1.563,6.588-1.944,9.881c-0.362,3.294-0.531,6.588-0.527,9.881
	c0.003,3.294,0.172,6.588,0.534,9.881c0.383,3.294,0.913,6.588,1.937,9.881c1.024-3.294,1.555-6.588,1.937-9.881
	c0.362-3.294,0.531-6.588,0.534-9.881c0.004-3.294-0.166-6.588-0.527-9.881C299.694,80.924,299.161,77.63,298.131,74.338z"/>
<radialGradient id="SVGID_3_" cx="315.4891" cy="-28.4578" r="161.79" gradientTransform="matrix(1.0039 0 0 -1.0039 0.1922 516.5593)" gradientUnits="userSpaceOnUse">
	<stop  offset="0" style="stop-color:#FFCF42"/>
	<stop  offset="1" style="stop-color:#FFCF42;stop-opacity:0"/>
</radialGradient>
<path style="fill:url(#SVGID_3_);" d="M298.131,374.268c-1.03,3.294-1.563,6.588-1.944,9.881c-0.362,3.294-0.531,6.588-0.527,9.881
	c0.003,3.294,0.172,6.587,0.534,9.881c0.383,3.294,0.913,6.588,1.937,9.881c1.024-3.294,1.555-6.587,1.937-9.881
	c0.362-3.294,0.531-6.587,0.534-9.881c0.004-3.294-0.166-6.588-0.527-9.881C299.694,380.856,299.161,377.562,298.131,374.268z"/>
<radialGradient id="SVGID_4_" cx="595.7791" cy="252.6122" r="160.73" gradientTransform="matrix(1.0039 0 0 -1.0039 0.1922 516.5593)" gradientUnits="userSpaceOnUse">
	<stop  offset="0" style="stop-color:#FFCF42"/>
	<stop  offset="1" style="stop-color:#FFCF42;stop-opacity:0"/>
</radialGradient>
<path style="fill:url(#SVGID_4_);" d="M448.097,241.594c-3.294,0.003-6.588,0.172-9.881,0.534c-3.294,0.382-6.587,0.913-9.881,1.937
	c3.294,1.024,6.587,1.555,9.881,1.937c3.294,0.362,6.588,0.531,9.881,0.534c3.294,0.004,6.587-0.166,9.881-0.527
	c3.294-0.38,6.587-0.914,9.881-1.944c-3.294-1.03-6.587-1.563-9.881-1.944C454.684,241.759,451.39,241.59,448.097,241.594z"/>
<radialGradient id="SVGID_5_" cx="297.0191" cy="252.6122" r="160.73" gradientTransform="matrix(1.0039 0 0 -1.0039 0.1922 516.5593)" gradientUnits="userSpaceOnUse">
	<stop  offset="0" style="stop-color:#FFCF42"/>
	<stop  offset="1" style="stop-color:#FFCF42;stop-opacity:0"/>
</radialGradient>
<path style="fill:url(#SVGID_5_);" d="M148.165,246.535c3.294,0.004,6.588-0.166,9.881-0.527c3.294-0.38,6.587-0.914,9.881-1.944
	c-3.294-1.03-6.587-1.563-9.881-1.944c-3.294-0.362-6.588-0.531-9.881-0.527c-3.294,0.003-6.587,0.172-9.881,0.534
	c-3.294,0.382-6.588,0.913-9.881,1.937c3.294,1.024,6.587,1.555,9.881,1.937C141.579,246.364,144.871,246.533,148.165,246.535z"/>
<radialGradient id="SVGID_6_" cx="508.2091" cy="270.6322" r="160.01" gradientTransform="matrix(1.0039 0 0 -1.0039 0.1922 516.5593)" gradientUnits="userSpaceOnUse">
	<stop  offset="0" style="stop-color:#FFCF42"/>
	<stop  offset="1" style="stop-color:#FFCF42;stop-opacity:0"/>
</radialGradient>
<path style="fill:url(#SVGID_6_);" d="M398.555,146.379c2.585-2.073,5.034-4.283,7.365-6.609c2.332-2.326,4.541-4.775,6.614-7.36
	c2.06-2.598,4.012-5.304,5.612-8.361c-3.057,1.6-5.764,3.553-8.361,5.613c-2.585,2.073-5.034,4.282-7.36,6.614
	c-2.327,2.331-4.537,4.78-6.609,7.365c-2.059,2.599-4.013,5.304-5.617,8.357C393.252,150.392,395.956,148.438,398.555,146.379z"/>
<radialGradient id="SVGID_7_" cx="296.9491" cy="59.3722" r="160.01" gradientTransform="matrix(1.0039 0 0 -1.0039 0.1922 516.5593)" gradientUnits="userSpaceOnUse">
	<stop  offset="0" style="stop-color:#FFCF42"/>
	<stop  offset="1" style="stop-color:#FFCF42;stop-opacity:0"/>
</radialGradient>
<path style="fill:url(#SVGID_7_);" d="M197.702,341.745c-2.585,2.073-5.034,4.282-7.36,6.614c-2.327,2.331-4.537,4.779-6.609,7.365
	c-2.059,2.599-4.013,5.304-5.617,8.357c3.053-1.605,5.757-3.559,8.357-5.617c2.585-2.072,5.034-4.282,7.365-6.609
	c2.332-2.326,4.541-4.775,6.614-7.36c2.06-2.598,4.012-5.304,5.613-8.361C203.006,337.734,200.3,339.685,197.702,341.745z"/>
<radialGradient id="SVGID_8_" cx="508.2091" cy="59.3722" r="160.01" gradientTransform="matrix(1.0039 0 0 -1.0039 0.1922 516.5593)" gradientUnits="userSpaceOnUse">
	<stop  offset="0" style="stop-color:#FFCF42"/>
	<stop  offset="1" style="stop-color:#FFCF42;stop-opacity:0"/>
</radialGradient>
<path style="fill:url(#SVGID_8_);" d="M405.92,348.359c-2.331-2.327-4.78-4.537-7.365-6.609c-2.599-2.059-5.304-4.013-8.357-5.617
	c1.605,3.053,3.559,5.757,5.617,8.357c2.073,2.585,4.282,5.034,6.609,7.365c2.326,2.332,4.775,4.541,7.36,6.614
	c2.598,2.06,5.304,4.012,8.361,5.613c-1.6-3.058-3.553-5.764-5.612-8.361C410.461,353.134,408.251,350.685,405.92,348.359z"/>
<radialGradient id="SVGID_9_" cx="296.9491" cy="270.6322" r="160.01" gradientTransform="matrix(1.0039 0 0 -1.0039 0.1922 516.5593)" gradientUnits="userSpaceOnUse">
	<stop  offset="0" style="stop-color:#FFCF42"/>
	<stop  offset="1" style="stop-color:#FFCF42;stop-opacity:0"/>
</radialGradient>
<path style="fill:url(#SVGID_9_);" d="M190.342,139.77c2.326,2.332,4.775,4.541,7.36,6.614c2.598,2.06,5.304,4.012,8.362,5.613
	c-1.6-3.057-3.553-5.764-5.613-8.362c-2.073-2.585-4.282-5.034-6.614-7.36c-2.331-2.327-4.779-4.537-7.365-6.609
	c-2.599-2.059-5.304-4.013-8.357-5.617c1.605,3.053,3.559,5.757,5.617,8.357C185.805,134.992,188.015,137.439,190.342,139.77z"/>
<radialGradient id="SVGID_10_" cx="407.9591" cy="270.3822" r="160.4" gradientTransform="matrix(1.0039 0 0 -1.0039 0.1922 516.5593)" gradientUnits="userSpaceOnUse">
	<stop  offset="0" style="stop-color:#FFCF42"/>
	<stop  offset="1" style="stop-color:#FFCF42;stop-opacity:0"/>
</radialGradient>
<path style="fill:url(#SVGID_10_);" d="M356.187,105.77c1.229-3.056,2.296-6.176,3.184-9.369c0.871-3.198,1.601-6.454,1.869-9.895
	c-2.181,2.674-3.9,5.534-5.478,8.45c-1.561,2.922-2.943,5.917-4.163,8.976c-1.222,3.059-2.29,6.179-3.178,9.371
	c-0.87,3.199-1.602,6.454-1.876,9.893c2.175-2.676,3.892-5.537,5.472-8.452C353.578,111.821,354.959,108.826,356.187,105.77z"/>
<radialGradient id="SVGID_11_" cx="296.8691" cy="-6.9578" r="160.4" gradientTransform="matrix(1.0039 0 0 -1.0039 0.1922 516.5593)" gradientUnits="userSpaceOnUse">
	<stop  offset="0" style="stop-color:#FFCF42"/>
	<stop  offset="1" style="stop-color:#FFCF42;stop-opacity:0"/>
</radialGradient>
<path style="fill:url(#SVGID_11_);" d="M240.075,382.359c-1.222,3.058-2.29,6.179-3.178,9.371c-0.87,3.2-1.602,6.454-1.876,9.893
	c2.176-2.676,3.893-5.537,5.472-8.452c1.561-2.922,2.943-5.917,4.17-8.974c1.228-3.056,2.296-6.176,3.184-9.369
	c0.871-3.199,1.601-6.454,1.869-9.895c-2.181,2.674-3.9,5.534-5.478,8.45C242.678,376.305,241.296,379.3,240.075,382.359z"/>
<radialGradient id="SVGID_12_" cx="574.3491" cy="159.9222" r="159.62" gradientTransform="matrix(1.0039 0 0 -1.0039 0.1922 516.5593)" gradientUnits="userSpaceOnUse">
	<stop  offset="0" style="stop-color:#FFCF42"/>
	<stop  offset="1" style="stop-color:#FFCF42;stop-opacity:0"/>
</radialGradient>
<path style="fill:url(#SVGID_12_);" d="M438.262,297.533c-3.059-1.222-6.179-2.29-9.371-3.178c-3.2-0.87-6.454-1.602-9.893-1.876
	c2.676,2.175,5.537,3.892,8.452,5.472c2.922,1.561,5.917,2.943,8.974,4.17c3.056,1.228,6.176,2.296,9.369,3.184
	c3.2,0.871,6.454,1.601,9.895,1.869c-2.674-2.181-5.534-3.9-8.45-5.478C444.316,300.136,441.321,298.753,438.262,297.533z"/>
<radialGradient id="SVGID_13_" cx="297.0091" cy="271.0122" r="159.62" gradientTransform="matrix(1.0039 0 0 -1.0039 0.1922 516.5593)" gradientUnits="userSpaceOnUse">
	<stop  offset="0" style="stop-color:#FFCF42"/>
	<stop  offset="1" style="stop-color:#FFCF42;stop-opacity:0"/>
</radialGradient>
<path style="fill:url(#SVGID_13_);" d="M157.999,190.597c3.056,1.228,6.176,2.296,9.369,3.184c3.199,0.871,6.454,1.601,9.895,1.87
	c-2.674-2.182-5.534-3.9-8.45-5.478c-2.922-1.561-5.917-2.942-8.976-4.163c-3.059-1.222-6.179-2.29-9.371-3.178
	c-3.199-0.87-6.454-1.602-9.893-1.876c2.676,2.176,5.537,3.892,8.452,5.472C151.948,187.989,154.943,189.37,157.999,190.597z"/>
<radialGradient id="SVGID_14_" cx="571.6591" cy="270.9822" r="159.64" gradientTransform="matrix(1.0039 0 0 -1.0039 0.1922 516.5593)" gradientUnits="userSpaceOnUse">
	<stop  offset="0" style="stop-color:#FFCF42"/>
	<stop  offset="1" style="stop-color:#FFCF42;stop-opacity:0"/>
</radialGradient>
<path style="fill:url(#SVGID_14_);" d="M426.153,187.163c-2.878,1.647-5.696,3.431-8.322,5.668c3.43-0.354,6.667-1.163,9.845-2.107
	c3.17-0.963,6.265-2.103,9.294-3.397c3.03-1.292,5.99-2.744,8.877-4.373c2.878-1.645,5.696-3.431,8.319-5.675
	c-3.433,0.349-6.671,1.156-9.848,2.101c-3.17,0.963-6.264,2.103-9.291,3.403C432,184.082,429.038,185.534,426.153,187.163z"/>
<radialGradient id="SVGID_15_" cx="296.9991" cy="153.4322" r="159.64" gradientTransform="matrix(1.0039 0 0 -1.0039 0.1922 516.5593)" gradientUnits="userSpaceOnUse">
	<stop  offset="0" style="stop-color:#FFCF42"/>
	<stop  offset="1" style="stop-color:#FFCF42;stop-opacity:0"/>
</radialGradient>
<path style="fill:url(#SVGID_15_);" d="M170.111,300.973c2.878-1.646,5.696-3.431,8.32-5.675c-3.433,0.349-6.671,1.156-9.848,2.101
	c-3.17,0.963-6.265,2.103-9.291,3.403c-3.027,1.298-5.988,2.75-8.874,4.379c-2.877,1.647-5.696,3.431-8.322,5.668
	c3.43-0.354,6.668-1.163,9.846-2.107c3.17-0.963,6.264-2.103,9.294-3.397C164.264,304.053,167.226,302.601,170.111,300.973z"/>
<radialGradient id="SVGID_16_" cx="414.4291" cy="-4.2678" r="160.39" gradientTransform="matrix(1.0039 0 0 -1.0039 0.1922 516.5593)" gradientUnits="userSpaceOnUse">
	<stop  offset="0" style="stop-color:#FFCF42"/>
	<stop  offset="1" style="stop-color:#FFCF42;stop-opacity:0"/>
</radialGradient>
<path style="fill:url(#SVGID_16_);" d="M359.411,380.96c-1.299-3.027-2.75-5.988-4.379-8.874c-1.647-2.877-3.431-5.696-5.668-8.322
	c0.354,3.43,1.163,6.668,2.107,9.845c0.963,3.17,2.103,6.265,3.397,9.294c1.292,3.03,2.744,5.99,4.373,8.877
	c1.645,2.878,3.431,5.696,5.674,8.319c-0.349-3.433-1.156-6.671-2.101-9.848C361.852,387.081,360.712,383.987,359.411,380.96z"/>
<radialGradient id="SVGID_17_" cx="296.8691" cy="270.3922" r="160.39" gradientTransform="matrix(1.0039 0 0 -1.0039 0.1922 516.5593)" gradientUnits="userSpaceOnUse">
	<stop  offset="0" style="stop-color:#FFCF42"/>
	<stop  offset="1" style="stop-color:#FFCF42;stop-opacity:0"/>
</radialGradient>
<path style="fill:url(#SVGID_17_);" d="M241.223,116.046c1.646,2.878,3.431,5.696,5.675,8.32c-0.348-3.433-1.156-6.671-2.101-9.848
	c-0.963-3.17-2.103-6.265-3.403-9.291c-1.299-3.027-2.75-5.988-4.379-8.874c-1.647-2.877-3.431-5.696-5.669-8.322
	c0.354,3.43,1.163,6.668,2.107,9.845c0.963,3.17,2.103,6.265,3.397,9.294C238.143,110.199,239.594,113.16,241.223,116.046z"/>
<radialGradient id="SVGID_18_" cx="357.2691" cy="270.3222" r="160.87" gradientTransform="matrix(1.0039 0 0 -1.0039 0.1922 516.5593)" gradientUnits="userSpaceOnUse">
	<stop  offset="0" style="stop-color:#FFCF42"/>
	<stop  offset="1" style="stop-color:#FFCF42;stop-opacity:0"/>
</radialGradient>
<path style="fill:url(#SVGID_18_);" d="M330.056,97.515c0.652-3.229,1.133-6.491,1.427-9.791c0.275-3.304,0.401-6.638,0.038-10.07
	c-1.657,3.027-2.828,6.151-3.849,9.305c-1.003,3.158-1.817,6.354-2.461,9.584c-0.645,3.23-1.127,6.492-1.42,9.793
	c-0.273,3.305-0.401,6.638-0.044,10.068c1.651-3.028,2.82-6.153,3.843-9.306C328.591,103.94,329.404,100.745,330.056,97.515z"/>
<radialGradient id="SVGID_19_" cx="298.4991" cy="-22.5978" r="160.87" gradientTransform="matrix(1.0039 0 0 -1.0039 0.1922 516.5593)" gradientUnits="userSpaceOnUse">
	<stop  offset="0" style="stop-color:#FFCF42"/>
	<stop  offset="1" style="stop-color:#FFCF42;stop-opacity:0"/>
</radialGradient>
<path style="fill:url(#SVGID_19_);" d="M268.667,381.03c-1.003,3.158-1.817,6.354-2.461,9.584c-0.645,3.23-1.127,6.492-1.42,9.792
	c-0.273,3.305-0.401,6.638-0.044,10.069c1.651-3.028,2.82-6.153,3.843-9.307c1.003-3.157,1.817-6.354,2.468-9.582
	c0.652-3.229,1.133-6.491,1.427-9.791c0.275-3.304,0.401-6.638,0.038-10.07C270.859,374.751,269.689,377.875,268.667,381.03z"/>
<radialGradient id="SVGID_20_" cx="589.9391" cy="210.7522" r="159.88" gradientTransform="matrix(1.0039 0 0 -1.0039 0.1922 516.5593)" gradientUnits="userSpaceOnUse">
	<stop  offset="0" style="stop-color:#FFCF42"/>
	<stop  offset="1" style="stop-color:#FFCF42;stop-opacity:0"/>
</radialGradient>
<path style="fill:url(#SVGID_20_);" d="M445.652,271.143c-3.23-0.646-6.492-1.127-9.793-1.421
	c-3.304-0.273-6.638-0.401-10.069-0.044c3.028,1.651,6.153,2.82,9.306,3.843c3.158,1.004,6.354,1.817,9.582,2.468
	c3.229,0.652,6.49,1.133,9.791,1.427c3.304,0.275,6.638,0.401,10.07,0.038c-3.027-1.657-6.151-2.828-9.305-3.849
	C452.078,272.601,448.882,271.788,445.652,271.143z"/>
<radialGradient id="SVGID_21_" cx="297.0191" cy="269.5222" r="159.88" gradientTransform="matrix(1.0039 0 0 -1.0039 0.1922 516.5593)" gradientUnits="userSpaceOnUse">
	<stop  offset="0" style="stop-color:#FFCF42"/>
	<stop  offset="1" style="stop-color:#FFCF42;stop-opacity:0"/>
</radialGradient>
<path style="fill:url(#SVGID_21_);" d="M150.61,216.986c3.229,0.652,6.491,1.133,9.792,1.427c3.304,0.275,6.638,0.401,10.07,0.038
	c-3.027-1.657-6.151-2.828-9.305-3.849c-3.158-1.003-6.354-1.817-9.584-2.461c-3.23-0.646-6.492-1.127-9.792-1.421
	c-3.305-0.273-6.638-0.401-10.068-0.045c3.028,1.651,6.153,2.82,9.306,3.843C144.185,215.521,147.381,216.335,150.61,216.986z"/>
<radialGradient id="SVGID_22_" cx="545.6691" cy="270.8022" r="159.8" gradientTransform="matrix(1.0039 0 0 -1.0039 0.1922 516.5593)" gradientUnits="userSpaceOnUse">
	<stop  offset="0" style="stop-color:#FFCF42"/>
	<stop  offset="1" style="stop-color:#FFCF42;stop-opacity:0"/>
</radialGradient>
<path style="fill:url(#SVGID_22_);" d="M406.511,171.908c3.309-0.973,6.345-2.356,9.298-3.863c2.943-1.524,5.778-3.209,8.521-5.032
	c2.744-1.822,5.391-3.788,7.933-5.915c2.531-2.142,4.976-4.411,7.147-7.094c-3.312,0.968-6.349,2.349-9.301,3.858
	c-2.942,1.524-5.778,3.209-8.517,5.037c-2.74,1.827-5.388,3.794-7.929,5.92C411.134,166.963,408.686,169.23,406.511,171.908z"/>
<radialGradient id="SVGID_23_" cx="296.9791" cy="105.2322" r="159.8" gradientTransform="matrix(1.0039 0 0 -1.0039 0.1922 516.5593)" gradientUnits="userSpaceOnUse">
	<stop  offset="0" style="stop-color:#FFCF42"/>
	<stop  offset="1" style="stop-color:#FFCF42;stop-opacity:0"/>
</radialGradient>
<path style="fill:url(#SVGID_23_);" d="M189.751,316.221c-3.313,0.968-6.35,2.349-9.302,3.858c-2.943,1.524-5.778,3.209-8.517,5.037
	c-2.74,1.827-5.388,3.794-7.929,5.92c-2.53,2.143-4.977,4.41-7.151,7.088c3.309-0.973,6.345-2.356,9.298-3.864
	c2.942-1.523,5.778-3.209,8.52-5.032c2.744-1.822,5.392-3.788,7.933-5.915C185.133,321.173,187.579,318.905,189.751,316.221z"/>
<radialGradient id="SVGID_24_" cx="462.4791" cy="21.8022" r="160.22" gradientTransform="matrix(1.0039 0 0 -1.0039 0.1922 516.5593)" gradientUnits="userSpaceOnUse">
	<stop  offset="0" style="stop-color:#FFCF42"/>
	<stop  offset="1" style="stop-color:#FFCF42;stop-opacity:0"/>
</radialGradient>
<path style="fill:url(#SVGID_24_);" d="M383.297,367.526c-1.828-2.74-3.794-5.388-5.92-7.929c-2.143-2.53-4.41-4.977-7.089-7.151
	c0.973,3.309,2.356,6.345,3.863,9.298c1.524,2.943,3.209,5.778,5.032,8.521c1.822,2.744,3.788,5.391,5.915,7.933
	c2.142,2.531,4.411,4.976,7.094,7.148c-0.968-3.313-2.349-6.35-3.858-9.302C386.81,373.101,385.125,370.266,383.297,367.526z"/>
<radialGradient id="SVGID_25_" cx="296.9091" cy="270.4922" r="160.22" gradientTransform="matrix(1.0039 0 0 -1.0039 0.1922 516.5593)" gradientUnits="userSpaceOnUse">
	<stop  offset="0" style="stop-color:#FFCF42"/>
	<stop  offset="1" style="stop-color:#FFCF42;stop-opacity:0"/>
</radialGradient>
<path style="fill:url(#SVGID_25_);" d="M212.965,120.603c1.822,2.744,3.788,5.392,5.915,7.932c2.142,2.531,4.411,4.977,7.094,7.148
	c-0.968-3.313-2.35-6.35-3.858-9.301c-1.524-2.942-3.209-5.778-5.037-8.517c-1.827-2.74-3.794-5.388-5.92-7.929
	c-2.143-2.53-4.41-4.977-7.088-7.151c0.973,3.309,2.356,6.345,3.863,9.298C209.458,115.026,211.142,117.861,212.965,120.603z"/>
<radialGradient id="SVGID_26_" cx="460.3891" cy="270.4822" r="160.23" gradientTransform="matrix(1.0039 0 0 -1.0039 0.1922 516.5593)" gradientUnits="userSpaceOnUse">
	<stop  offset="0" style="stop-color:#FFCF42"/>
	<stop  offset="1" style="stop-color:#FFCF42;stop-opacity:0"/>
</radialGradient>
<path style="fill:url(#SVGID_26_);" d="M376.404,127.872c2.106-2.558,4.05-5.222,5.854-7.978c1.806-2.755,3.466-5.604,4.965-8.559
	c1.484-2.965,2.84-6.013,3.78-9.333c-2.664,2.194-4.912,4.658-7.034,7.207c-2.105,2.559-4.049,5.222-5.848,7.982
	c-1.799,2.759-3.461,5.608-4.959,8.562c-1.482,2.966-2.84,6.013-3.786,9.33C372.035,132.885,374.283,130.42,376.404,127.872z"/>
<radialGradient id="SVGID_27_" cx="296.9091" cy="20.4222" r="160.23" gradientTransform="matrix(1.0039 0 0 -1.0039 0.1922 516.5593)" gradientUnits="userSpaceOnUse">
	<stop  offset="0" style="stop-color:#FFCF42"/>
	<stop  offset="1" style="stop-color:#FFCF42;stop-opacity:0"/>
</radialGradient>
<path style="fill:url(#SVGID_27_);" d="M219.852,360.254c-2.105,2.559-4.049,5.222-5.848,7.982c-1.8,2.758-3.461,5.607-4.959,8.562
	c-1.483,2.966-2.84,6.013-3.786,9.33c2.659-2.197,4.906-4.663,7.028-7.21c2.105-2.558,4.049-5.222,5.854-7.978
	c1.805-2.755,3.466-5.604,4.965-8.559c1.484-2.965,2.84-6.013,3.78-9.333C224.221,355.24,221.973,357.706,219.852,360.254z"/>
<radialGradient id="SVGID_28_" cx="547.0491" cy="107.3322" r="159.8" gradientTransform="matrix(1.0039 0 0 -1.0039 0.1922 516.5593)" gradientUnits="userSpaceOnUse">
	<stop  offset="0" style="stop-color:#FFCF42"/>
	<stop  offset="1" style="stop-color:#FFCF42;stop-opacity:0"/>
</radialGradient>
<path style="fill:url(#SVGID_28_);" d="M432.988,329.903c-2.559-2.105-5.222-4.049-7.981-5.848c-2.759-1.8-5.608-3.461-8.562-4.959
	c-2.966-1.483-6.013-2.84-9.33-3.786c2.197,2.659,4.663,4.906,7.21,7.027c2.558,2.105,5.223,4.049,7.978,5.854
	s5.604,3.466,8.559,4.965c2.966,1.484,6.013,2.84,9.333,3.78C438.001,334.272,435.537,332.024,432.988,329.903z"/>
<radialGradient id="SVGID_29_" cx="296.9791" cy="270.8122" r="159.8" gradientTransform="matrix(1.0039 0 0 -1.0039 0.1922 516.5593)" gradientUnits="userSpaceOnUse">
	<stop  offset="0" style="stop-color:#FFCF42"/>
	<stop  offset="1" style="stop-color:#FFCF42;stop-opacity:0"/>
</radialGradient>
<path style="fill:url(#SVGID_29_);" d="M163.277,158.22c2.559,2.105,5.223,4.049,7.978,5.854c2.755,1.805,5.605,3.467,8.559,4.965
	c2.966,1.484,6.013,2.84,9.333,3.78c-2.193-2.664-4.658-4.912-7.207-7.033c-2.559-2.105-5.223-4.049-7.982-5.848
	c-2.759-1.8-5.608-3.461-8.562-4.959c-2.966-1.483-6.013-2.84-9.33-3.786C158.264,153.852,160.729,156.099,163.277,158.22z"/>
<radialGradient id="SVGID_30_" cx="589.4391" cy="269.7922" r="159.83" gradientTransform="matrix(1.0039 0 0 -1.0039 0.1922 516.5593)" gradientUnits="userSpaceOnUse">
	<stop  offset="0" style="stop-color:#FFCF42"/>
	<stop  offset="1" style="stop-color:#FFCF42;stop-opacity:0"/>
</radialGradient>
<path style="fill:url(#SVGID_30_);" d="M434.845,213.46c-3.145,1.049-6.26,2.244-9.274,3.921c3.433,0.327,6.766,0.172,10.068-0.13
	c3.298-0.32,6.557-0.83,9.78-1.502c3.225-0.672,6.413-1.512,9.563-2.541c3.145-1.048,6.26-2.244,9.273-3.927
	c-3.435-0.333-6.767-0.18-10.069,0.122c-3.298,0.32-6.557,0.83-9.779,1.509C441.184,211.59,437.994,212.43,434.845,213.46z"/>
<radialGradient id="SVGID_31_" cx="297.0191" cy="208.5622" r="159.83" gradientTransform="matrix(1.0039 0 0 -1.0039 0.1922 516.5593)" gradientUnits="userSpaceOnUse">
	<stop  offset="0" style="stop-color:#FFCF42"/>
	<stop  offset="1" style="stop-color:#FFCF42;stop-opacity:0"/>
</radialGradient>
<path style="fill:url(#SVGID_31_);" d="M161.418,274.676c3.145-1.048,6.26-2.244,9.273-3.927c-3.434-0.333-6.767-0.18-10.069,0.122
	c-3.298,0.32-6.557,0.83-9.779,1.509c-3.224,0.678-6.413,1.518-9.562,2.548c-3.145,1.049-6.26,2.244-9.274,3.92
	c3.433,0.327,6.766,0.172,10.068-0.129c3.298-0.32,6.557-0.83,9.781-1.502C155.079,276.547,158.269,275.705,161.418,274.676z"/>
<radialGradient id="SVGID_32_" cx="359.4591" cy="-22.0978" r="160.82" gradientTransform="matrix(1.0039 0 0 -1.0039 0.1922 516.5593)" gradientUnits="userSpaceOnUse">
	<stop  offset="0" style="stop-color:#FFCF42"/>
	<stop  offset="1" style="stop-color:#FFCF42;stop-opacity:0"/>
</radialGradient>
<path style="fill:url(#SVGID_32_);" d="M331.284,390.341c-0.678-3.224-1.518-6.412-2.548-9.561c-1.049-3.145-2.244-6.26-3.92-9.274
	c-0.327,3.433-0.172,6.766,0.129,10.068c0.32,3.298,0.83,6.557,1.502,9.781c0.671,3.225,1.512,6.413,2.541,9.563
	c1.047,3.145,2.244,6.26,3.927,9.273c0.333-3.434,0.18-6.767-0.122-10.069C332.472,396.822,331.962,393.564,331.284,390.341z"/>
<radialGradient id="SVGID_33_" cx="298.2291" cy="270.3222" r="160.82" gradientTransform="matrix(1.0039 0 0 -1.0039 0.1922 516.5593)" gradientUnits="userSpaceOnUse">
	<stop  offset="0" style="stop-color:#FFCF42"/>
	<stop  offset="1" style="stop-color:#FFCF42;stop-opacity:0"/>
</radialGradient>
<path style="fill:url(#SVGID_33_);" d="M267.52,107.352c1.048,3.145,2.244,6.26,3.927,9.273c0.333-3.434,0.18-6.767-0.122-10.069
	c-0.32-3.298-0.83-6.557-1.509-9.779c-0.678-3.224-1.518-6.412-2.548-9.561c-1.049-3.145-2.244-6.26-3.92-9.274
	c-0.327,3.433-0.172,6.766,0.129,10.068c0.32,3.298,0.83,6.557,1.502,9.78C265.649,101.013,266.49,104.202,267.52,107.352z"/>
<radialGradient id="SVGID_34_" cx="213.1891" cy="354.4322" r="259.66" gradientTransform="matrix(1.0039 0 0 -1.0039 0.1922 516.5593)" gradientUnits="userSpaceOnUse">
	<stop  offset="0" style="stop-color:#FFCF42"/>
	<stop  offset="0.086" style="stop-color:#FFC93E"/>
	<stop  offset="0.204" style="stop-color:#FFB731"/>
	<stop  offset="0.34" style="stop-color:#FF9A1D"/>
	<stop  offset="0.489" style="stop-color:#FF7201"/>
	<stop  offset="0.496" style="stop-color:#FF7000"/>
	<stop  offset="1" style="stop-color:#FF001C"/>
</radialGradient>
<circle style="fill:url(#SVGID_34_);" cx="298.135" cy="244.063" r="132.688"/>
<linearGradient id="SVGID_35_" gradientUnits="userSpaceOnUse" x1="317.9212" y1="115.4143" x2="196.5712" y2="236.7643" gradientTransform="matrix(1.0039 0 0 -1.0039 0.1922 516.5593)">
	<stop  offset="0" style="stop-color:#FF001C;stop-opacity:0"/>
	<stop  offset="1" style="stop-color:#C1001C"/>
</linearGradient>
<path style="fill:url(#SVGID_35_);" d="M298.131,376.758c14.85,0,29.13-2.441,42.461-6.94l-77.356-77.356
	c-8.253-9.473-20.401-15.464-33.952-15.464c-5.572,0-10.906,1.014-15.83,2.864c-1.385,0.521-2.825,0.705-4.222,0.59l-16.814-16.761
	c-7.572-8.169-16.729-14.842-26.98-19.542C165.483,317.393,224.874,376.758,298.131,376.758z"/>
<linearGradient id="SVGID_36_" gradientUnits="userSpaceOnUse" x1="129.4994" y1="208.8123" x2="205.5494" y2="40.5423" gradientTransform="matrix(1.0039 0 0 -1.0039 0.1922 516.5593)">
	<stop  offset="0" style="stop-color:#FFF2E8"/>
	<stop  offset="1" style="stop-color:#E7D2B9"/>
</linearGradient>
<path style="fill:url(#SVGID_36_);" d="M280.833,323.117c-3.717-0.944-6.458-4.057-7.029-7.85
	c-3.259-21.663-21.948-38.272-44.519-38.272c-5.572,0-10.906,1.014-15.83,2.864c-4.277,1.607-9.07,0.049-11.515-3.811
	c-15.073-23.796-41.62-39.601-71.871-39.601c-43.857,0-79.935,33.204-84.523,75.842c-0.41,3.811-2.997,7.064-6.672,8.153
	c-22.635,6.712-39.106,27.757-38.871,52.626c0.283,29.95,25.242,53.825,55.194,53.825H266.95c29.27,0,53.85-23.949,53.572-53.218
	C320.291,349.287,303.488,328.871,280.833,323.117z"/>
<linearGradient id="SVGID_37_" gradientUnits="userSpaceOnUse" x1="318.0718" y1="130.8233" x2="368.2218" y2="2.1933" gradientTransform="matrix(1.0039 0 0 -1.0039 0.1922 516.5593)">
	<stop  offset="0" style="stop-color:#FFF2E8"/>
	<stop  offset="1" style="stop-color:#E7D2B9"/>
</linearGradient>
<path style="fill:url(#SVGID_37_);" d="M444.819,407.861c-7.43-4.688-12.612-12.248-14.621-20.801
	c-1.114-4.746-2.44-9.546-3.837-12.807c-11.664-27.22-38.548-46.545-69.79-47.07c-32.342-0.543-60.236,18.779-72.287,46.567
	c-4.035,9.304-12.957,15.398-23.083,15.947c-0.422,0.023-0.844,0.052-1.269,0.086c-23.072,1.882-41.345,20.979-42.236,44.11
	c-0.452,11.737,3.496,22.537,10.313,30.906c7.677,10.325,20.074,17.003,33.875,17.003h1.862h91.495h67.536
	c22.199,0,40.695-17.763,40.745-39.961C463.557,427.53,456.082,414.968,444.819,407.861z"/>
<g>
</g>
<g>
</g>
<g>
</g>
<g>
</g>
<g>
</g>
<g>
</g>
<g>
</g>
<g>
</g>
<g>
</g>
<g>
</g>
<g>
</g>
<g>
</g>
<g>
</g>
<g>
</g>
<g>
</g>
</svg>
